<svg xmlns="http://www.w3.org/2000/svg" width="20" height="20" viewBox="0 0 20 20" fill="none">
  <path d="M17.8125 10.0001C17.8127 12.0541 17.004 14.0256 15.5614 15.4877C14.1188 16.9499 12.1585 17.7851 10.1047 17.8126H10C8.00552 17.8168 6.08591 17.0534 4.63906 15.6806C4.45828 15.5099 4.35273 15.2743 4.34562 15.0258C4.33851 14.7772 4.43044 14.536 4.60117 14.3552C4.77191 14.1744 5.00746 14.0689 5.25602 14.0618C5.50458 14.0547 5.74578 14.1466 5.92656 14.3173C6.77519 15.1185 7.84111 15.6518 8.99112 15.8506C10.1411 16.0494 11.3242 15.9049 12.3926 15.4352C13.4609 14.9654 14.3671 14.1912 14.998 13.2093C15.6288 12.2274 15.9563 11.0814 15.9395 9.9144C15.9227 8.74745 15.5623 7.61133 14.9035 6.64802C14.2446 5.6847 13.3165 4.93691 12.2351 4.4981C11.1536 4.05929 9.96684 3.94891 8.82303 4.18076C7.67922 4.41261 6.62911 4.97641 5.80391 5.8017C5.79375 5.81185 5.78438 5.82123 5.77344 5.8306L4.28828 7.18763H5.625C5.87364 7.18763 6.1121 7.28641 6.28791 7.46222C6.46373 7.63804 6.5625 7.87649 6.5625 8.12513C6.5625 8.37377 6.46373 8.61223 6.28791 8.78805C6.1121 8.96386 5.87364 9.06263 5.625 9.06263H1.875C1.62636 9.06263 1.3879 8.96386 1.21209 8.78805C1.03627 8.61223 0.9375 8.37377 0.9375 8.12513V4.37513C0.9375 4.12649 1.03627 3.88804 1.21209 3.71222C1.3879 3.53641 1.62636 3.43763 1.875 3.43763C2.12364 3.43763 2.3621 3.53641 2.53791 3.71222C2.71373 3.88804 2.8125 4.12649 2.8125 4.37513V5.99388L4.49062 4.45795C5.58508 3.36937 6.97748 2.62942 8.49209 2.33148C10.0067 2.03354 11.5756 2.19096 13.0008 2.78388C14.4261 3.37681 15.6437 4.37865 16.5001 5.66296C17.3564 6.94728 17.8131 8.4565 17.8125 10.0001Z" fill="currentColor"/>
</svg>
