<svg xmlns="http://www.w3.org/2000/svg" width="16" height="14" viewBox="0 0 16 14" fill="none">
<path fill-rule="evenodd" clip-rule="evenodd" d="M6.61508 0.256003C6.91338 0.0881668 7.24989 0 7.59217 0C7.93445 0 8.27097 0.0881666 8.56927 0.256003C8.86758 0.423839 9.11762 0.665685 9.29531 0.958232L9.29741 0.961698L14.9127 10.335L14.9183 10.3444C15.0921 10.6457 15.1841 10.9872 15.185 11.335C15.1859 11.6828 15.0958 12.0248 14.9236 12.327C14.7514 12.6292 14.5031 12.8811 14.2033 13.0575C13.9036 13.234 13.5629 13.329 13.2151 13.3329L13.2075 13.333L1.96989 13.333C1.62209 13.329 1.28139 13.234 0.981666 13.0575C0.681938 12.8811 0.433623 12.6292 0.261406 12.327C0.0891888 12.0248 -0.00093077 11.6828 7.24838e-06 11.335C0.000945306 10.9872 0.0929083 10.6457 0.266753 10.3444L0.272262 10.3351L5.88903 0.958225C6.06672 0.665678 6.31677 0.423839 6.61508 0.256003ZM7.59217 1.33333C7.47892 1.33333 7.36758 1.36251 7.26887 1.41804C7.17065 1.4733 7.08824 1.55282 7.0295 1.64898L1.41936 11.0148C1.36329 11.1135 1.33364 11.225 1.33334 11.3386C1.33303 11.4537 1.36284 11.5669 1.41983 11.6669C1.47681 11.7668 1.55897 11.8502 1.65815 11.9086C1.75642 11.9664 1.86801 11.9978 1.982 11.9996H13.203C13.317 11.9978 13.4286 11.9664 13.5269 11.9086C13.626 11.8502 13.7082 11.7668 13.7652 11.6669C13.8222 11.5669 13.852 11.4537 13.8517 11.3386C13.8514 11.225 13.8217 11.1135 13.7657 11.0148L8.15571 1.65039C8.15542 1.64992 8.15514 1.64945 8.15485 1.64899C8.09611 1.55282 8.0137 1.4733 7.91548 1.41804C7.81677 1.36251 7.70543 1.33333 7.59217 1.33333ZM7.63218 3.99965C8.00037 3.99965 8.29885 4.29812 8.29885 4.66631V7.33298C8.29885 7.70117 8.00037 7.99965 7.63218 7.99965C7.26399 7.99965 6.96552 7.70117 6.96552 7.33298V4.66631C6.96552 4.29812 7.26399 3.99965 7.63218 3.99965ZM6.96552 9.99965C6.96552 9.63146 7.26399 9.33298 7.63218 9.33298H7.63885C8.00704 9.33298 8.30552 9.63146 8.30552 9.99965C8.30552 10.3678 8.00704 10.6663 7.63885 10.6663H7.63218C7.26399 10.6663 6.96552 10.3678 6.96552 9.99965Z" fill="#EA5455"/>
</svg>
