<svg xmlns="http://www.w3.org/2000/svg" width="24" height="24" viewBox="0 0 24 24" fill="none">
<path fill-rule="evenodd" clip-rule="evenodd" d="M7.20203 0.888072C8.61749 0.301767 10.1346 0 11.6667 0C13.1988 0 14.7158 0.301767 16.1313 0.888072C17.5468 1.47438 18.8329 2.33374 19.9162 3.41709C20.9996 4.50044 21.859 5.78656 22.4453 7.20203C23.0316 8.61749 23.3333 10.1346 23.3333 11.6667C23.3333 13.1988 23.0316 14.7158 22.4453 16.1313C21.859 17.5468 20.9996 18.8329 19.9162 19.9162C18.8329 20.9996 17.5468 21.859 16.1313 22.4453C14.7158 23.0316 13.1988 23.3333 11.6667 23.3333C10.1346 23.3333 8.61749 23.0316 7.20203 22.4453C5.78656 21.859 4.50044 20.9996 3.41709 19.9162C2.33374 18.8329 1.47438 17.5468 0.888072 16.1313C0.301767 14.7158 0 13.1988 0 11.6667C0 10.1346 0.301767 8.61749 0.888072 7.20203C1.47438 5.78656 2.33374 4.50044 3.41709 3.41709C4.50044 2.33374 5.78656 1.47438 7.20203 0.888072ZM11.6667 2.33333C10.441 2.33333 9.22733 2.57475 8.09495 3.04379C6.96258 3.51284 5.93368 4.20032 5.067 5.067C4.20032 5.93368 3.51284 6.96258 3.04379 8.09495C2.57475 9.22733 2.33333 10.441 2.33333 11.6667C2.33333 12.8923 2.57475 14.106 3.04379 15.2384C3.51283 16.3708 4.20032 17.3996 5.067 18.2663C5.93368 19.133 6.96258 19.8205 8.09495 20.2895C9.22733 20.7586 10.441 21 11.6667 21C12.8923 21 14.106 20.7586 15.2384 20.2895C16.3708 19.8205 17.3996 19.133 18.2663 18.2663C19.133 17.3996 19.8205 16.3708 20.2895 15.2384C20.7586 14.106 21 12.8923 21 11.6667C21 10.441 20.7586 9.22733 20.2895 8.09495C19.8205 6.96258 19.133 5.93368 18.2663 5.067C17.3996 4.20032 16.3708 3.51284 15.2384 3.04379C14.106 2.57475 12.8923 2.33333 11.6667 2.33333ZM15.9916 8.50838C16.4472 8.96399 16.4472 9.70268 15.9916 10.1583L11.325 14.825C10.8693 15.2806 10.1307 15.2806 9.67504 14.825L7.34171 12.4916C6.8861 12.036 6.8861 11.2973 7.34171 10.8417C7.79732 10.3861 8.53601 10.3861 8.99162 10.8417L10.5 12.3501L14.3417 8.50838C14.7973 8.05276 15.536 8.05276 15.9916 8.50838Z" fill="white"/>
</svg>
