<svg width="74" height="48" viewBox="0 0 74 48" fill="none" xmlns="http://www.w3.org/2000/svg">
<path d="M24.2584 8.79548L17.6114 43.324L16.7411 47.8443L61.1156 47.624C63.1063 47.6145 64.8714 45.8273 65.5124 43.174L73.3812 10.5751C73.8681 8.55997 72.8004 6.46509 71.289 6.46509L26.3769 6.51257C25.3844 6.51257 24.5178 7.4489 24.2584 8.79548Z" fill="#13C690"/>
<g opacity="0.2">
<path d="M24.2584 8.79548L17.6114 43.324L16.7411 47.8443L61.1156 47.624C63.1063 47.6145 64.8714 45.8273 65.5124 43.174L73.3812 10.5751C73.8681 8.55997 72.8004 6.46509 71.289 6.46509L26.3769 6.51257C25.3844 6.51257 24.5178 7.4489 24.2584 8.79548Z" fill="#2C3344"/>
</g>
<path d="M56.8595 40.9842L52.1619 2.73116C51.9683 1.16427 50.7333 -0.00567706 49.2745 2.07219e-05L38.9714 0.0342074C38.2082 0.0361067 37.4769 0.364679 36.9356 0.945852L32.0443 6.19921L3.39059 6.35115C1.6405 6.36064 0.294568 8.03389 0.525783 9.91606L4.88879 45.2708C5.08241 46.8358 6.31555 48.0038 7.7724 48L57.7092 47.9013C63.2715 48.0171 63.8016 46.3591 63.8016 46.3591C57.4272 47.7854 56.8595 40.9899 56.8595 40.9861V40.9842Z" fill="#13C690"/>
<circle cx="17.5" cy="27" r="2" fill="white"/>
<circle cx="27.5" cy="27" r="2" fill="white"/>
<circle cx="37.5" cy="27" r="2" fill="white"/>
</svg>
