<svg xmlns="http://www.w3.org/2000/svg" width="16" height="18" viewBox="0 0 16 18" fill="none">
<path d="M15 0C15.852 0 16.297 0.986 15.783 1.623L15.707 1.707L11.915 5.5L15.707 9.293C16.31 9.895 15.927 10.907 15.114 10.994L15 11H2V17C1.99997 17.2449 1.91004 17.4813 1.74728 17.6644C1.58453 17.8474 1.36025 17.9643 1.117 17.993L1 18C0.755067 18 0.518663 17.91 0.335628 17.7473C0.152593 17.5845 0.0356572 17.3603 0.00699997 17.117L0 17V1C3.23106e-05 0.755067 0.089956 0.518663 0.252715 0.335628C0.415474 0.152593 0.639749 0.0356572 0.883 0.00699997L1 0H15Z" fill="#13C690"/>
</svg>

