<svg xmlns="http://www.w3.org/2000/svg" width="14" height="14" viewBox="0 0 14 14" fill="none">
<path d="M6.66699 0C8.4351 1.10492e-07 10.1306 0.702883 11.3809 1.95312C12.6311 3.20337 13.334 4.89888 13.334 6.66699C13.334 7.54234 13.1611 8.40904 12.8262 9.21777C12.4911 10.0266 11.9999 10.7618 11.3809 11.3809C10.7618 11.9999 10.0266 12.4911 9.21777 12.8262C8.40904 13.1611 7.54234 13.334 6.66699 13.334C5.79165 13.334 4.92494 13.1611 4.11621 12.8262C3.30737 12.4911 2.57218 11.9999 1.95312 11.3809C1.33407 10.7618 0.842844 10.0266 0.507812 9.21777C0.172882 8.40904 5.47756e-08 7.54234 0 6.66699C3.97364e-08 4.89888 0.702883 3.20337 1.95312 1.95312C3.20337 0.702883 4.89888 0 6.66699 0ZM6.66699 1.33398C5.2525 1.33398 3.8957 1.89531 2.89551 2.89551C1.89531 3.8957 1.33398 5.2525 1.33398 6.66699C1.33398 7.36734 1.47126 8.06097 1.73926 8.70801C2.00728 9.35508 2.40026 9.94323 2.89551 10.4385C3.39075 10.9337 3.97891 11.3267 4.62598 11.5947C5.27302 11.8627 5.96665 12 6.66699 12C7.36734 12 8.06097 11.8627 8.70801 11.5947C9.35508 11.3267 9.94323 10.9337 10.4385 10.4385C10.9337 9.94323 11.3267 9.35508 11.5947 8.70801C11.8627 8.06097 12 7.36734 12 6.66699C12 5.2525 11.4387 3.8957 10.4385 2.89551C9.43828 1.89531 8.08148 1.33398 6.66699 1.33398ZM8.70898 4.66797C8.87077 4.67825 9.02302 4.74771 9.1377 4.8623C9.25248 4.9771 9.32184 5.12997 9.33203 5.29199C9.34216 5.45394 9.29282 5.61398 9.19336 5.74219L9.1377 5.80469L6.47168 8.47168L6.40918 8.52734C6.29226 8.61805 6.14798 8.66699 6 8.66699C5.85224 8.66697 5.70861 8.61781 5.5918 8.52734L5.52832 8.47168L4.19531 7.13867L4.13965 7.0752C4.04045 6.94699 3.99175 6.78679 4.00195 6.625C4.01221 6.46309 4.08059 6.31003 4.19531 6.19531C4.31006 6.0806 4.46307 6.01218 4.625 6.00195C4.78698 5.99173 4.94692 6.04119 5.0752 6.14062L5.1377 6.19531L6 7.05664L8.19531 4.8623L8.25781 4.80664C8.38608 4.70714 8.54697 4.65778 8.70898 4.66797Z" fill="#13C690"/>
</svg>
