<svg xmlns="http://www.w3.org/2000/svg" width="16" height="16" viewBox="0 0 16 16" fill="none">
<path fill-rule="evenodd" clip-rule="evenodd" d="M3.28465 3.28612C4.53489 2.03588 6.23059 1.3335 7.9987 1.3335C9.76681 1.3335 11.4625 2.03588 12.7127 3.28612C13.963 4.53636 14.6654 6.23205 14.6654 8.00016C14.6654 8.87564 14.4929 9.74255 14.1579 10.5514C13.8229 11.3602 13.3318 12.0951 12.7127 12.7142C12.0937 13.3333 11.3588 13.8243 10.5499 14.1594C9.74108 14.4944 8.87418 14.6668 7.9987 14.6668C7.12322 14.6668 6.25631 14.4944 5.44747 14.1594C4.63864 13.8243 3.90371 13.3333 3.28465 12.7142C2.6656 12.0951 2.17453 11.3602 1.8395 10.5514C1.50447 9.74255 1.33203 8.87564 1.33203 8.00016C1.33203 6.23205 2.03441 4.53636 3.28465 3.28612ZM7.9987 2.66683C6.58421 2.66683 5.22766 3.22873 4.22746 4.22893C3.22727 5.22912 2.66536 6.58567 2.66536 8.00016C2.66536 8.70055 2.80332 9.39407 3.07134 10.0411C3.33937 10.6882 3.73222 11.2762 4.22746 11.7714C4.72271 12.2666 5.31065 12.6595 5.95772 12.9275C6.60479 13.1955 7.29831 13.3335 7.9987 13.3335C8.69908 13.3335 9.39261 13.1955 10.0397 12.9275C10.6867 12.6595 11.2747 12.2666 11.7699 11.7714C12.2652 11.2762 12.658 10.6882 12.9261 10.0411C13.1941 9.39407 13.332 8.70055 13.332 8.00016C13.332 6.58567 12.7701 5.22912 11.7699 4.22893C10.7697 3.22873 9.41319 2.66683 7.9987 2.66683ZM7.9987 4.66683C8.36689 4.66683 8.66536 4.96531 8.66536 5.3335V8.00016C8.66536 8.36835 8.36689 8.66683 7.9987 8.66683C7.63051 8.66683 7.33203 8.36835 7.33203 8.00016V5.3335C7.33203 4.96531 7.63051 4.66683 7.9987 4.66683ZM7.33203 10.6668C7.33203 10.2986 7.63051 10.0002 7.9987 10.0002H8.00536C8.37355 10.0002 8.67203 10.2986 8.67203 10.6668C8.67203 11.035 8.37355 11.3335 8.00536 11.3335H7.9987C7.63051 11.3335 7.33203 11.035 7.33203 10.6668Z" fill="#FBBC55"/>
</svg>
