<svg xmlns="http://www.w3.org/2000/svg" width="20" height="20" viewBox="0 0 20 20" fill="none">
  <path fill-rule="evenodd" clip-rule="evenodd" d="M6.46557 3.13048C7.40325 2.1928 8.67502 1.66602 10.0011 1.66602C11.3272 1.66602 12.599 2.1928 13.5366 3.13048C14.4743 4.06816 15.0011 5.33993 15.0011 6.66602C15.0011 7.30312 14.8795 7.92768 14.6492 8.50869C15.0379 8.61466 15.414 8.76766 15.7688 8.96545C16.5131 9.38036 17.139 9.97861 17.5871 10.7034C18.0352 11.4282 18.2906 12.2555 18.3291 13.1067C18.3676 13.9579 18.188 14.8049 17.8072 15.5672C17.4263 16.3295 16.857 16.9818 16.1533 17.4622C15.4495 17.9426 14.6346 18.2352 13.786 18.3122C12.9374 18.3892 12.0831 18.2481 11.3044 17.9021C10.8269 17.69 10.3876 17.4053 10.0011 17.0596C9.35037 17.6416 8.55509 18.046 7.6923 18.2266C6.5897 18.4574 5.44147 18.3091 4.4337 17.8057C3.42592 17.3023 2.61767 16.4734 2.13991 15.4532C1.66216 14.433 1.5429 13.2814 1.80147 12.185C2.06004 11.0886 2.68128 10.1116 3.56452 9.41241C4.09718 8.99073 4.70631 8.68498 5.35303 8.50869C5.12269 7.92768 5.0011 7.30312 5.0011 6.66602C5.0011 5.33993 5.52788 4.06816 6.46557 3.13048ZM7.34013 8.67362C7.33658 8.66878 7.33298 8.66398 7.32933 8.65922C6.90235 8.08689 6.66777 7.38854 6.66777 6.66602C6.66777 5.78196 7.01896 4.93411 7.64408 4.30899C8.2692 3.68387 9.11704 3.33268 10.0011 3.33268C10.8852 3.33268 11.733 3.68387 12.3581 4.30899C12.9832 4.93411 13.3344 5.78196 13.3344 6.66602C13.3344 7.38873 13.0997 8.08725 12.6725 8.65967C12.6691 8.66413 12.6657 8.66863 12.6624 8.67316C12.5698 8.79601 12.4682 8.91298 12.3581 9.02304C11.7463 9.63482 10.9212 9.98424 10.0576 9.99887C10.0188 9.99614 9.97984 9.9961 9.94091 9.99881C9.07864 9.98325 8.255 9.63396 7.64408 9.02304C7.53415 8.91311 7.4327 8.7963 7.34013 8.67362ZM6.29331 10.0205C5.67683 10.0902 5.08932 10.331 4.599 10.7192C4.01018 11.1853 3.59602 11.8366 3.42364 12.5676C3.25126 13.2985 3.33076 14.0663 3.64927 14.7464C3.96777 15.4265 4.50661 15.9791 5.17845 16.3147C5.8503 16.6503 6.61579 16.7492 7.35086 16.5953C8.08593 16.4415 8.74751 16.0439 9.22837 15.467C9.70924 14.8902 9.98122 14.1678 10.0002 13.4171C10.0161 12.7928 9.85616 12.1792 9.54247 11.645C8.3846 11.5383 7.29453 11.0305 6.46557 10.2015C6.40651 10.1425 6.34908 10.0821 6.29331 10.0205ZM11.316 11.49C11.5626 12.112 11.6835 12.7814 11.6664 13.4593C11.6459 14.2677 11.4299 15.0541 11.0428 15.7536C11.3168 16.0129 11.6338 16.2247 11.981 16.379C12.5002 16.6096 13.0697 16.7037 13.6354 16.6524C14.2012 16.6011 14.7444 16.406 15.2136 16.0857C15.6828 15.7654 16.0623 15.3305 16.3162 14.8224C16.5701 14.3142 16.6898 13.7495 16.6642 13.182C16.6385 12.6145 16.4682 12.063 16.1695 11.5798C15.8708 11.0966 15.4535 10.6978 14.9573 10.4212C14.5707 10.2057 14.1462 10.0699 13.7089 10.0205C13.6531 10.0821 13.5957 10.1425 13.5366 10.2015C12.9158 10.8224 12.1486 11.2631 11.316 11.49Z" fill="currentColor"/>
</svg>
