<svg xmlns="http://www.w3.org/2000/svg" width="20" height="20" viewBox="0 0 20 20" fill="none">
<path fill-rule="evenodd" clip-rule="evenodd" d="M9.77 0C10.3223 0 10.77 0.447715 10.77 1V1.01C10.77 1.56228 10.3223 2.01 9.77 2.01C9.21772 2.01 8.77 1.56228 8.77 1.01V1C8.77 0.447715 9.21772 0 9.77 0ZM5.87 0.889999C6.42229 0.889999 6.87 1.33771 6.87 1.89V1.9C6.87 2.45228 6.42229 2.9 5.87 2.9C5.31772 2.9 4.87 2.45228 4.87 1.9V1.89C4.87 1.33771 5.31772 0.889999 5.87 0.889999ZM13.67 0.889999C14.2223 0.889999 14.67 1.33771 14.67 1.89V1.9C14.67 2.45228 14.2223 2.9 13.67 2.9C13.1177 2.9 12.67 2.45228 12.67 1.9V1.89C12.67 1.33771 13.1177 0.889999 13.67 0.889999ZM2.73 3.39C3.28228 3.39 3.73 3.83771 3.73 4.39V4.4C3.73 4.95228 3.28228 5.4 2.73 5.4C2.17772 5.4 1.73 4.95228 1.73 4.4V4.39C1.73 3.83771 2.17772 3.39 2.73 3.39ZM16.81 3.39C17.3623 3.39 17.81 3.83771 17.81 4.39V4.4C17.81 4.95228 17.3623 5.4 16.81 5.4C16.2577 5.4 15.81 4.95228 15.81 4.4V4.39C15.81 3.83771 16.2577 3.39 16.81 3.39ZM5.52736 5.75736C6.65258 4.63214 8.1787 4 9.77 4C11.3613 4 12.8874 4.63214 14.0126 5.75736C15.1379 6.88258 15.77 8.4087 15.77 10C15.77 11.5913 15.1379 13.1174 14.0126 14.2426C12.8874 15.3679 11.3613 16 9.77 16C8.1787 16 6.65258 15.3679 5.52736 14.2426C4.40214 13.1174 3.77 11.5913 3.77 10C3.77 8.4087 4.40214 6.88258 5.52736 5.75736ZM9.77 6C8.70914 6 7.69172 6.42143 6.94157 7.17157C6.19143 7.92172 5.77 8.93913 5.77 10C5.77 11.0609 6.19143 12.0783 6.94157 12.8284C7.69172 13.5786 8.70914 14 9.77 14C10.8309 14 11.8483 13.5786 12.5984 12.8284C13.3486 12.0783 13.77 11.0609 13.77 10C13.77 8.93913 13.3486 7.92172 12.5984 7.17157C11.8483 6.42143 10.8309 6 9.77 6ZM1 7C1.55228 7 2 7.44772 2 8V8.01C2 8.56228 1.55228 9.01 1 9.01C0.447715 9.01 0 8.56228 0 8.01V8C0 7.44772 0.447715 7 1 7ZM18.54 7C19.0923 7 19.54 7.44772 19.54 8V8.01C19.54 8.56228 19.0923 9.01 18.54 9.01C17.9877 9.01 17.54 8.56228 17.54 8.01V8C17.54 7.44772 17.9877 7 18.54 7ZM8.35579 8.58579C8.73086 8.21071 9.23957 8 9.77 8C10.3004 8 10.8091 8.21072 11.1842 8.58579C11.5593 8.96086 11.77 9.46956 11.77 10C11.77 10.5304 11.5593 11.0391 11.1842 11.4142C10.8091 11.7893 10.3004 12 9.77 12C9.23957 12 8.73086 11.7893 8.35579 11.4142C7.98071 11.0391 7.77 10.5304 7.77 10C7.77 9.46957 7.98071 8.96086 8.35579 8.58579ZM1 11C1.55228 11 2 11.4477 2 12V12.01C2 12.5623 1.55228 13.01 1 13.01C0.447715 13.01 0 12.5623 0 12.01V12C0 11.4477 0.447715 11 1 11ZM18.54 11C19.0923 11 19.54 11.4477 19.54 12V12.01C19.54 12.5623 19.0923 13.01 18.54 13.01C17.9877 13.01 17.54 12.5623 17.54 12.01V12C17.54 11.4477 17.9877 11 18.54 11ZM2.73 14.61C3.28228 14.61 3.73 15.0577 3.73 15.61V15.62C3.73 16.1723 3.28228 16.62 2.73 16.62C2.17772 16.62 1.73 16.1723 1.73 15.62V15.61C1.73 15.0577 2.17772 14.61 2.73 14.61ZM16.81 14.61C17.3623 14.61 17.81 15.0577 17.81 15.61V15.62C17.81 16.1723 17.3623 16.62 16.81 16.62C16.2577 16.62 15.81 16.1723 15.81 15.62V15.61C15.81 15.0577 16.2577 14.61 16.81 14.61ZM5.87 17.11C6.42229 17.11 6.87 17.5577 6.87 18.11V18.12C6.87 18.6723 6.42229 19.12 5.87 19.12C5.31772 19.12 4.87 18.6723 4.87 18.12V18.11C4.87 17.5577 5.31772 17.11 5.87 17.11ZM13.67 17.11C14.2223 17.11 14.67 17.5577 14.67 18.11V18.12C14.67 18.6723 14.2223 19.12 13.67 19.12C13.1177 19.12 12.67 18.6723 12.67 18.12V18.11C12.67 17.5577 13.1177 17.11 13.67 17.11ZM9.77 18C10.3223 18 10.77 18.4477 10.77 19V19.01C10.77 19.5623 10.3223 20.01 9.77 20.01C9.21772 20.01 8.77 19.5623 8.77 19.01V19C8.77 18.4477 9.21772 18 9.77 18Z" fill="#13C690"/>
</svg>

