<svg xmlns="http://www.w3.org/2000/svg" width="20" height="20" viewBox="0 0 20 20" fill="none">
  <path fill-rule="evenodd" clip-rule="evenodd" d="M2.98816 8.82214C3.30072 8.50958 3.72464 8.33398 4.16667 8.33398C4.60869 8.33398 5.03262 8.50958 5.34518 8.82214C5.65774 9.1347 5.83333 9.55862 5.83333 10.0007C5.83333 10.4427 5.65774 10.8666 5.34518 11.1792C5.03262 11.4917 4.60869 11.6673 4.16667 11.6673C3.72464 11.6673 3.30072 11.4917 2.98816 11.1792C2.6756 10.8666 2.5 10.4427 2.5 10.0007C2.5 9.55862 2.6756 9.1347 2.98816 8.82214ZM8.82149 8.82214C9.13405 8.50958 9.55797 8.33398 10 8.33398C10.442 8.33398 10.866 8.50958 11.1785 8.82214C11.4911 9.1347 11.6667 9.55862 11.6667 10.0007C11.6667 10.4427 11.4911 10.8666 11.1785 11.1792C10.866 11.4917 10.442 11.6673 10 11.6673C9.55797 11.6673 9.13405 11.4917 8.82149 11.1792C8.50893 10.8666 8.33333 10.4427 8.33333 10.0007C8.33333 9.55862 8.50893 9.1347 8.82149 8.82214ZM14.6548 8.82214C14.9674 8.50958 15.3913 8.33398 15.8333 8.33398C16.2754 8.33398 16.6993 8.50958 17.0118 8.82214C17.3244 9.1347 17.5 9.55862 17.5 10.0007C17.5 10.4427 17.3244 10.8666 17.0118 11.1792C16.6993 11.4917 16.2754 11.6673 15.8333 11.6673C15.3913 11.6673 14.9674 11.4917 14.6548 11.1792C14.3423 10.8666 14.1667 10.4427 14.1667 10.0007C14.1667 9.55862 14.3423 9.1347 14.6548 8.82214Z" fill="currentColor"/>
</svg>
